<?xml version="1.0" encoding="UTF-8" standalone="no"?>
<!-- Created with Inkscape (http://www.inkscape.org/) -->

<svg
   width="118.57571mm"
   height="123.19308mm"
   viewBox="0 0 118.57572 123.1931"
   version="1.1"
   id="svg5"
   xml:space="preserve"
   inkscape:version="1.3 (0e150ed, 2023-07-21)"
   sodipodi:docname="logo.svg"
   xmlns:inkscape="http://www.inkscape.org/namespaces/inkscape"
   xmlns:sodipodi="http://sodipodi.sourceforge.net/DTD/sodipodi-0.dtd"
   xmlns="http://www.w3.org/2000/svg"
   xmlns:svg="http://www.w3.org/2000/svg"><sodipodi:namedview
     id="namedview7"
     pagecolor="#ffffff"
     bordercolor="#000000"
     borderopacity="0.25"
     inkscape:showpageshadow="2"
     inkscape:pageopacity="0.0"
     inkscape:pagecheckerboard="0"
     inkscape:deskcolor="#d1d1d1"
     inkscape:document-units="mm"
     showgrid="false"
     inkscape:zoom="1.6819304"
     inkscape:cx="234.25464"
     inkscape:cy="209.87789"
     inkscape:window-width="1552"
     inkscape:window-height="917"
     inkscape:window-x="1712"
     inkscape:window-y="31"
     inkscape:window-maximized="0"
     inkscape:current-layer="layer1" /><defs
     id="defs2" /><g
     inkscape:label="main layer"
     inkscape:groupmode="layer"
     id="layer1"
     style="display:inline;fill:none"
     transform="translate(-33.929713,-78.923272)"><path
       id="rect9097"
       style="display:inline;fill:#c6ded9;fill-opacity:1;stroke-width:0.275273"
       inkscape:label="bg squares"
       d="m 78.526337,92.563667 c -3.89273,1.147522 -6.632138,2.72682 -10.136195,4.812303 v 8.61034 c 0,1.92341 1.548218,3.47162 3.471623,3.47162 l 10.324624,-0.16685 z m -14.985511,8.127353 c -3.439769,2.64694 -6.528382,5.74372 -9.187553,9.21185 h 5.715413 c 1.923405,0 3.47214,-1.54822 3.47214,-3.47163 z m 7.898742,14.43995 c -1.923405,0 -3.472139,1.54824 -3.472139,3.47162 v 15.9706 c 0,1.92342 1.548734,3.47214 3.472139,3.47214 h 9.640239 c -0.08332,-0.5155 -0.134579,-1.03567 -0.153479,-1.55752 0.02948,-6.36532 4.79295,-11.71316 11.1125,-12.47573 v -5.40949 c 0,-0.93636 -0.371452,-1.77977 -0.969967,-2.40295 -2.224969,0.009 -4.551858,0.26363 -6.972184,0.82217 l -0.352433,-1.89084 z m -21.036442,0.77876 c -3.918175,6.99641 -6.154129,14.8521 -6.522082,22.91437 h 16.187642 c 1.923405,0 3.47214,-1.54873 3.47214,-3.47214 v -15.9706 c 0,-1.92341 -1.548735,-3.47163 -3.47214,-3.47163 z m 46.113677,1.39147 c -0.647138,0.63 -1.207891,0.87927 -1.207891,1.85795 v 4.8767 c 6.213468,0.87344 10.842598,6.17745 10.867568,12.45196 -0.002,0.70848 -0.0645,1.41549 -0.18552,2.11356 h 9.91722 c 1.85928,0 3.35497,-1.45072 3.45354,-3.28455 -1.85795,0.42863 -3.52851,0.63416 -3.5444,0.5363 -2.21285,-8.62873 -8.56948,-15.5473 -19.300517,-18.55192 z m 44.935467,13.72559 c -6.59864,1.28864 -13.65415,2.23547 -18.55743,3.44719 v 0.65577 c 0,1.92341 1.54873,3.47162 3.47214,3.47162 h 16.0631 c -0.17706,-2.97765 -0.29492,-4.67499 -0.97781,-7.57458 z M 104.4603,142.8285 c -1.94449,3.34805 -5.317704,5.61876 -9.151388,6.16035 v 0.19689 c 1.870309,-0.0106 3.740376,-0.021 4.229716,-0.006 2.516952,0.0786 2.921482,3.1156 1.958542,7.00785 -0.26005,1.05113 -1.11834,4.99562 -2.101685,9.55445 h 16.512695 c 1.92341,0 3.47214,-1.54821 3.47214,-3.47162 v -15.9706 c 0,-1.92341 -1.54873,-3.47163 -3.47214,-3.47163 z m 21.90668,0 c -1.92341,0 -3.47214,1.54822 -3.47214,3.47163 v 15.9706 c 0,1.92341 1.54873,3.47162 3.47214,3.47162 h 9.79733 c 3.81048,-7.02413 5.9404,-14.87802 6.21409,-22.91385 z m -82.516942,0.22221 c 0.305149,8.04475 2.470469,15.89935 6.316927,22.91437 h 10.124447 c 1.923405,0 3.471622,-1.54821 3.471622,-3.47163 v -15.9706 c 0,-1.92341 -1.548217,-3.47214 -3.471622,-3.47214 z m 27.344584,0 c -1.923405,0 -3.472139,1.54873 -3.472139,3.47214 v 15.9706 c 0,0.984 0.40899,1.86595 1.062467,2.49649 l 2.739885,-15.55099 c 0,0 11.916684,-0.15501 20.269047,-0.22892 v -0.27027 c -3.721118,-0.52831 -7.013387,-2.68704 -8.981364,-5.88905 z m 0,27.1415 c -1.923405,0 -3.472139,1.54821 -3.472139,3.47162 v 10.9058 c 1.416015,0.84641 2.872163,1.61992 4.363041,2.31768 -1.158237,-1.32066 2.063046,-13.32551 2.994649,-16.6951 z m 27.243298,0 c -1.821896,8.49671 -3.797514,17.80642 -4.153751,19.49855 -0.0751,0.35674 -0.207216,0.65304 -0.382406,0.90382 0.129429,0.4351 0.33281,0.83787 0.607715,1.18546 8.203472,-0.25394 16.216002,-2.60349 23.313322,-6.83628 v -11.27993 c 0,-1.92341 -1.54822,-3.47162 -3.47163,-3.47162 z m -45.54399,0.22221 c 3.015987,4.3597 6.684332,8.2021 10.869104,11.38483 v -7.91269 c 0,-1.92341 -1.548217,-3.47214 -3.471622,-3.47214 z m 73.0276,0 c -1.92341,0 -3.47163,1.54873 -3.47163,3.47214 v 7.91269 c 4.18477,-3.18273 7.85312,-7.02513 10.86911,-11.38483 z"
       sodipodi:nodetypes="ccssccccsscsssscccscccsccssssccscccscccccssccccccscsssccssssccsccsssscssscccccssscccscscccsscccsscssccs" /><path
       id="path478"
       style="display:inline;fill:#379198;fill-opacity:0.996078;stroke-width:0.264786"
       d="m 76.028436,81.961924 a 59.287983,61.40144 0 0 0 -42.098723,58.753016 59.287983,61.40144 0 0 0 59.288371,61.40142 59.287983,61.40144 0 0 0 59.287346,-61.40142 59.287983,61.40144 0 0 0 -1.03508,-11.19312 l -6.12314,1.2423 A 52.168976,54.02866 0 0 1 146.16525,140.27 52.168976,54.02866 0 0 1 93.996331,194.29875 52.168976,54.02866 0 0 1 41.826906,140.27 52.168976,54.02866 0 0 1 77.423699,89.058131 Z"
       inkscape:label="outer circle" /><path
       style="display:inline;fill:#ff0000;fill-opacity:1;stroke:none;stroke-width:0.264786;stroke-opacity:1"
       d="m 91.29262,108.19444 c -2.048239,-0.0308 -4.399678,0.14197 -6.47564,0.53537 l 1.273374,5.62808 c 13.380981,-0.84352 25.633056,1.97629 31.229956,19.47975 l 5.3518,-1.21885 c -3.94782,-14.03626 -17.0418,-24.20892 -31.37949,-24.42435 z"
       id="path3"
       inkscape:label="wifi? small" /><path
       style="display:inline;fill:#e00713;fill-opacity:1;stroke:none;stroke-width:0.264786;stroke-opacity:1"
       d="m 91.34378,93.941554 c -2.903043,-0.03499 -6.546838,0.412773 -9.446523,0.912349 l 1.612049,7.447747 c 17.934894,-4.560016 40.189474,5.75155 45.616484,28.48922 l 7.64972,-1.86752 C 131.45469,107.80736 111.66509,94.186492 91.34378,93.941554 Z"
       id="path2"
       inkscape:label="wifi? med" /><path
       style="display:inline;fill:#b92e36;fill-opacity:1;stroke:none;stroke-width:0.264786;stroke-opacity:1"
       d="m 94.194252,78.925933 c -4.831229,0.04496 -10.383648,0.882806 -15.35456,2.087472 l 1.503785,6.744808 c 25.294063,-6.397911 56.106583,8.204857 63.689803,39.538557 l 6.58913,-1.6809 C 143.45341,95.728339 120.2829,78.683129 94.194252,78.925933 Z"
       id="path478-0"
       inkscape:label="wifi? big" /><path
       id="path4624"
       style="display:inline;fill:#ff0000;fill-opacity:1;stroke-width:0.281119"
       inkscape:label="Letter"
       d="M 93.551397,125.14225 A 11.345918,11.345918 0 0 0 82.20532,136.48781 11.345918,11.345918 0 0 0 93.551397,147.83388 11.345918,11.345918 0 0 0 104.89749,136.48781 11.345918,11.345918 0 0 0 93.551397,125.14225 Z m 3.315043,25.30801 c -6.172541,0.0225 -24.117908,0.3235 -24.117908,0.3235 l -3.224609,16.5964 7.393347,0.39326 c 0,0 -5.112411,18.9556 -3.539319,19.97811 1.573092,1.0225 7.865411,3.14655 11.876795,3.53983 4.011383,0.39327 6.842658,0.78643 7.471895,-2.20245 0.629237,-2.98888 6.528466,-29.8889 7.157703,-33.11374 0.629236,-3.22484 1.337176,-5.42701 -1.179773,-5.50561 -0.314619,-0.01 -0.956339,-0.0125 -1.838131,-0.009 z" /></g></svg>
